<?xml version="1.0" encoding="UTF-8" standalone="no"?>
<!-- Created with Inkscape (http://www.inkscape.org/) -->

<svg
   xmlns:dc="http://purl.org/dc/elements/1.1/"
   xmlns:cc="http://creativecommons.org/ns#"
   xmlns:rdf="http://www.w3.org/1999/02/22-rdf-syntax-ns#"
   xmlns:svg="http://www.w3.org/2000/svg"
   xmlns="http://www.w3.org/2000/svg"
   xmlns:sodipodi="http://sodipodi.sourceforge.net/DTD/sodipodi-0.dtd"
   xmlns:inkscape="http://www.inkscape.org/namespaces/inkscape"
   width="744.09448819"
   height="1052.3622047"
   id="svg2"
   version="1.1"
   inkscape:version="0.48.5 r10040"
   sodipodi:docname="logo.svg">
  <defs
     id="defs4" />
  <sodipodi:namedview
     id="base"
     pagecolor="#ffffff"
     bordercolor="#666666"
     borderopacity="1.0"
     inkscape:pageopacity="0.0"
     inkscape:pageshadow="2"
     inkscape:zoom="0.35"
     inkscape:cx="323.6354"
     inkscape:cy="611.14947"
     inkscape:document-units="px"
     inkscape:current-layer="layer1"
     showgrid="false"
     inkscape:window-width="875"
     inkscape:window-height="754"
     inkscape:window-x="592"
     inkscape:window-y="106"
     inkscape:window-maximized="0" />
  <metadata
     id="metadata7">
    <rdf:RDF>
      <cc:Work
         rdf:about="">
        <dc:format>image/svg+xml</dc:format>
        <dc:type
           rdf:resource="http://purl.org/dc/dcmitype/StillImage" />
        <dc:title></dc:title>
      </cc:Work>
    </rdf:RDF>
  </metadata>
  <g
     inkscape:label="Layer 1"
     inkscape:groupmode="layer"
     id="layer1">
    <g
       id="g3219"
       transform="translate(5.7142857,-82.857143)"
       inkscape:export-filename="C:\Users\nikit_000\Documents\Visual Studio 2013\Projects\QuickLogViewer\Art\Logo\logo24.png"
       inkscape:export-xdpi="4.7145491"
       inkscape:export-ydpi="4.7145491">
      <path
         d="m 599.99998,618.07648 c 0,126.23651 -102.33491,228.57142 -228.57142,228.57142 -126.23651,0 -228.57143,-102.33491 -228.57143,-228.57142 0,-126.23652 102.33492,-228.57143 228.57143,-228.57143 126.23651,0 228.57142,102.33491 228.57142,228.57143 z"
         sodipodi:ry="228.57143"
         sodipodi:rx="228.57143"
         sodipodi:cy="618.07648"
         sodipodi:cx="371.42856"
         id="path3029"
         style="fill:#000000;fill-opacity:1;fill-rule:evenodd;stroke:#000000;stroke-width:1;stroke-miterlimit:4;stroke-opacity:1;stroke-dasharray:none"
         sodipodi:type="arc" />
      <path
         inkscape:connector-curvature="0"
         d="m 234.73768,505.37457 c 5.02913,4.35881 10.62555,8.03175 16.1315,11.75315 13.01775,8.24265 27.10407,14.54578 41.33159,20.36162 12.68713,5.03171 25.86508,8.54892 39.32634,10.6933 7.20227,0.99383 14.47014,1.36737 21.73259,1.54226 1.71788,0.0414 6.87278,0.0845 5.15441,0.0867 -4.79496,0.006 -9.58979,-0.0498 -14.38469,-0.0747 11.06342,-0.25528 22.0044,-2.02166 32.93611,-3.5866 10.66304,-1.36924 21.2641,-3.13012 31.8148,-5.18432 7.61207,-1.58067 15.25921,-2.95637 22.73666,-5.10504 0,0 20.71548,2.71455 20.71548,2.71455 l 0,0 c -7.83208,2.05663 -15.75838,3.60213 -23.70896,5.1305 -10.65929,2.06406 -21.36786,3.84349 -32.13636,5.24256 -10.89507,1.50802 -21.76129,3.4462 -32.77472,3.86282 -17.12073,0.0459 -34.3953,0.71597 -51.38859,-1.90429 -13.17381,-2.38987 -26.05108,-6.06533 -38.41898,-11.24194 -14.4863,-6.10589 -28.8394,-12.61995 -42.41916,-20.57828 -6.2326,-3.7753 -12.43372,-7.60763 -18.42764,-11.75557 0,0 21.77962,-1.95682 21.77962,-1.95682 z"
         id="path3199"
         style="fill:#00ff00;fill-opacity:1;fill-rule:evenodd;stroke:#000000;stroke-width:1;stroke-miterlimit:4;stroke-opacity:1;stroke-dasharray:none" />
      <path
         inkscape:connector-curvature="0"
         d="m 180.82022,562.65215 c 0.81865,3.77021 3.33376,6.84094 5.76337,9.71435 6.756,7.65492 15.55248,13.03582 24.21693,18.24378 15.37283,9.23766 32.13046,15.74071 48.98516,21.68894 14.02116,4.73245 28.40706,8.28485 42.95003,10.97249 10.16796,1.97045 20.48676,2.91835 30.83424,2.98312 -4.84283,-0.0169 -9.68722,0.0738 -14.52847,-0.0507 -1.76802,-0.0455 3.53634,-0.0939 5.30251,-0.18652 7.28057,-0.38179 14.54118,-1.14038 21.78402,-1.94819 11.05969,-1.43885 22.09346,-3.07037 33.14808,-4.54757 11.19926,-1.36009 22.34615,-3.09891 33.4889,-4.85257 11.21148,-1.76736 22.38897,-3.74055 33.57448,-5.6632 6.41695,-1.20098 12.86726,-2.42457 19.08387,-4.45351 0,0 21.11356,2.65447 21.11356,2.65447 l 0,0 c -6.64813,2.23394 -13.65815,3.22386 -20.51723,4.58216 -11.31443,1.84657 -22.6168,3.76047 -33.92786,5.62859 -11.08445,1.79113 -22.17118,3.58557 -33.32058,4.93277 -11.07711,1.41338 -22.12334,3.06047 -33.18717,4.57172 -17.16293,2.04635 -34.35616,3.31038 -51.67955,2.4186 -10.23387,-0.22583 -20.41813,-1.26767 -30.44426,-3.39645 -14.07392,-2.90529 -27.98527,-6.58353 -41.52044,-11.44517 -17.10417,-6.22755 -34.09085,-12.94806 -49.97475,-21.92217 -9.29746,-5.32367 -18.78337,-10.75419 -26.10804,-18.7273 -2.84663,-3.2075 -5.51513,-6.58982 -7.02432,-10.65887 0,0 21.98752,-0.53875 21.98752,-0.53875 z"
         id="path3201"
         style="fill:#00ff00;fill-opacity:1;fill-rule:evenodd;stroke:#000000;stroke-width:1;stroke-miterlimit:4;stroke-opacity:1;stroke-dasharray:none" />
      <path
         inkscape:connector-curvature="0"
         d="m 217.39346,676.08537 c 2.06099,3.07443 5.14888,5.37102 7.97459,7.7081 6.86245,5.77071 14.68646,10.3287 22.54278,14.59995 10.80252,5.991 22.57431,9.81576 34.4353,13.0681 10.89042,3.03098 22.0592,4.61558 33.30507,5.48727 8.72343,0.54831 17.46828,0.54106 26.20498,0.52796 -33.13352,0.14284 -12.87944,0.1719 -5.45787,-0.53959 2.20754,-0.21163 4.58797,-0.56202 6.78571,-0.86465 6.35293,-0.81556 12.71493,-1.55717 19.06747,-2.37839 5.9378,-0.87822 11.90129,-1.56343 17.8239,-2.54264 4.50054,-0.78312 8.86964,-2.07195 13.23947,-3.36978 1.94907,-0.5016 3.7918,-1.30772 5.64528,-2.07413 0,0 21.45405,2.60802 21.45405,2.60802 l 0,0 c -2.01074,0.69056 -3.91715,1.62734 -5.95679,2.23298 -4.5351,1.16288 -8.97054,2.68027 -13.58614,3.53262 -6.00413,1.08208 -12.08197,1.62365 -18.10353,2.59605 -6.37648,0.80258 -12.74392,1.66724 -19.13543,2.34583 -0.0773,0.0108 -6.88929,0.96133 -6.89338,0.9618 -11.61356,1.34219 -23.45804,0.25708 -35.05634,0.68442 -8.59181,-0.0353 -17.19276,-0.0908 -25.76313,-0.76993 -11.09463,-1.06591 -22.09922,-2.8747 -32.83716,-5.92671 -11.93675,-3.45228 -23.73642,-7.52169 -34.69143,-13.47228 -8.22602,-4.42214 -16.42773,-9.04233 -23.78435,-14.83237 -3.20328,-2.44035 -6.31767,-4.97252 -9.13274,-7.85751 0,0 21.91969,-1.72512 21.91969,-1.72512 z"
         id="path3203"
         style="fill:#00ff00;fill-opacity:1;fill-rule:evenodd;stroke:#000000;stroke-width:1;stroke-miterlimit:4;stroke-opacity:1;stroke-dasharray:none" />
      <path
         inkscape:connector-curvature="0"
         d="m 468.73493,704.45346 c -5.29094,1.43554 -10.57007,2.85364 -15.97043,3.81444 -9.91358,1.01265 -20.50038,2.75662 -30.02002,-0.59381 -4.28707,-1.50882 -8.10661,-4.04061 -11.91659,-6.44741 -13.00939,-8.77218 -24.45015,-19.57256 -35.40588,-30.7367 -12.03679,-13.0609 -22.71266,-27.4265 -31.15155,-43.08145 -1.69028,-3.13562 -3.17936,-6.3756 -4.76903,-9.56341 -5.27803,-11.92894 -9.04023,-24.55106 -9.4638,-37.66283 -0.25134,-7.78024 0.30985,-9.5195 1.35942,-17.10038 2.06868,-10.10595 5.98416,-19.70513 12.78264,-27.5811 4.39028,-5.0861 6.7428,-6.55427 11.99354,-10.73684 11.7722,-8.30707 25.28468,-13.81185 39.30661,-16.98438 2.80045,-0.63362 5.64113,-1.07408 8.46169,-1.61112 2.82284,-0.34207 5.63344,-0.80781 8.46853,-1.0262 2.8036,-0.21595 5.61946,-0.30357 8.43123,-0.27556 15.21121,0.1515 22.47543,-0.71357 35.08318,2.09117 6.7824,1.50882 10.42047,2.97082 16.99145,5.233 11.90234,4.51119 23.37098,10.22936 33.95643,17.31913 6.66277,4.46249 8.32408,6.07978 14.44721,11.12304 10.55477,9.41935 19.55066,20.75361 25.80025,33.48834 1.17695,2.39828 2.1437,4.89412 3.21555,7.34117 3.28701,8.73225 5.66347,17.80837 6.83839,27.06999 0.67772,5.34234 0.62779,6.61159 0.86624,11.93737 -0.46555,13.05516 -4.2767,24.91546 -9.13341,36.89974 -3.91833,9.43905 -8.70186,17.88045 -15.28164,25.69215 -4.23907,4.87456 -8.97018,9.18125 -14.44697,12.6004 -3.42671,2.03262 -7.11965,3.55257 -10.82261,4.99683 -3.71711,1.15958 -7.44643,2.28939 -11.17881,3.40303 -3.83701,1.34172 -7.81734,2.17576 -11.64047,3.55385 -1.94912,0.71841 -3.93147,1.34025 -5.90472,1.9883 0,0 -21.53396,-2.80167 -21.53396,-2.80167 l 0,0 c 2.08125,-0.50147 4.07238,-1.28504 6.14637,-1.81744 1.15389,-0.40456 2.2897,-0.86229 3.45553,-1.23103 2.78528,-0.88097 5.72639,-1.21802 8.42661,-2.39006 3.64662,-1.13678 7.26431,-2.37739 10.96642,-3.31931 3.81341,-1.27767 7.52518,-2.83381 11.15435,-4.56654 5.89479,-3.25264 10.53598,-6.88548 15.12104,-11.87823 6.7678,-7.39443 12.19846,-15.80129 16.24895,-24.98786 0.81837,-1.93498 1.7007,-3.84414 2.45511,-5.80494 3.72454,-9.68046 6.09614,-19.87929 6.42516,-30.26584 -0.36717,-13.04026 -2.03073,-26.06445 -6.73265,-38.32353 -1.01133,-2.39311 -1.90263,-4.84057 -3.034,-7.17931 -6.08279,-12.57428 -15.21704,-23.46249 -25.49253,-32.8096 -5.77223,-4.78442 -7.79573,-6.70986 -14.09521,-10.91013 -10.60691,-7.07232 -22.19258,-12.58103 -34.17511,-16.87743 -6.94916,-2.26757 -9.96774,-3.4808 -17.1322,-4.91679 -2.80469,-0.56215 -9.98265,1.14278 -8.48339,-1.29331 1.68149,-2.73219 6.60109,0.5778 9.60952,-0.53649 5.3,-1.96305 -22.39201,1.9332 -16.92586,1.00395 -2.81323,0.49654 -5.64445,0.90021 -8.43971,1.48962 -13.886,2.92805 -27.30135,8.10909 -38.98277,16.24529 -5.21895,4.07443 -7.32279,5.31897 -11.69292,10.27957 -6.68791,7.59155 -10.86585,16.84963 -13.11782,26.6455 -1.22438,7.42661 -1.81636,9.02578 -1.71779,16.68448 0.1655,12.85863 3.67842,25.26508 8.74021,37.00483 1.54941,3.15043 2.98252,6.36077 4.64822,9.45129 8.43079,15.64231 19.30129,29.88573 31.69112,42.58556 11.52952,11.09668 23.52854,21.85275 37.32815,30.09163 4.1081,2.25229 8.16013,4.57301 12.76247,5.68109 1.06613,0.25669 4.34661,0.44974 3.25126,0.50208 -4.76765,0.22783 -25.67001,0.50893 -14.31927,-0.008 5.06206,-0.76575 10.01453,-1.90935 14.84694,-3.62342 0,0 21.70133,2.72478 21.70133,2.72478 z"
         id="path3209"
         style="fill:#00ff00;fill-opacity:1;fill-rule:evenodd;stroke:#000000;stroke-width:1;stroke-miterlimit:4;stroke-opacity:1;stroke-dasharray:none" />
      <path
         inkscape:connector-curvature="0"
         d="m 463.3686,709.81601 c -1.74646,7.32472 -1.40024,14.94465 -1.0419,22.40146 0.7676,11.17713 1.51228,22.35551 1.97913,33.54954 0.25957,7.00243 0.64565,14.03744 0.14838,21.03777 0,0 -21.19336,-0.25532 -21.19336,-0.25532 l 0,0 c 1.19083,-6.83926 1.23437,-13.80004 1.13247,-20.72407 -0.18877,-11.1744 -0.58229,-22.34577 -1.68454,-33.47336 -0.67897,-7.61807 -1.27566,-15.24262 -1.22236,-22.89743 0,0 21.88218,0.36141 21.88218,0.36141 z"
         id="path3211"
         style="fill:#00ff00;fill-opacity:1;fill-rule:evenodd;stroke:#000000;stroke-width:1;stroke-miterlimit:4;stroke-opacity:1;stroke-dasharray:none" />
      <path
         inkscape:connector-curvature="0"
         d="m 352.22754,573.99561 c 5.6518,-1.42492 11.34488,-2.63314 17.08712,-3.63813 10.6578,-1.68322 21.31575,-3.36101 31.99652,-4.89248 8.45859,-1.02631 16.85693,-2.46299 25.27041,-3.79489 4.90173,-0.65707 9.7176,-1.76433 14.54812,-2.79372 3.67101,-0.81176 7.3077,-1.79756 10.93601,-2.78654 4.21534,-1.27125 8.40275,-2.61168 12.56095,-4.05822 1.91938,-0.6022 3.84852,-1.17201 5.77185,-1.76134 0,0 21.19295,2.74671 21.19295,2.74671 l 0,0 c -1.98291,0.54271 -3.94017,1.16905 -5.93971,1.65037 -4.15532,1.34281 -8.25452,2.86651 -12.42709,4.15298 -3.62313,1.15528 -7.35012,1.95595 -11.00931,2.97921 -5.06816,0.90549 -10.06256,2.22082 -15.19285,2.78337 -8.72575,1.35198 -17.46998,2.6111 -26.23453,3.68488 -10.52539,1.49086 -21.02549,3.13075 -31.50872,4.89673 -5.15014,0.90874 -10.3348,1.90794 -15.25062,3.73855 0,0 -21.8011,-2.90748 -21.8011,-2.90748 z"
         id="path3213"
         style="fill:#00ff00;fill-opacity:1;fill-rule:evenodd;stroke:#000000;stroke-width:1;stroke-miterlimit:4;stroke-opacity:1;stroke-dasharray:none" />
      <path
         inkscape:connector-curvature="0"
         d="m 366.40518,599.10314 c 5.48169,0.1759 10.95504,-0.30907 16.41068,-0.776 12.40255,-1.19906 24.74283,-2.94025 37.07025,-4.73584 13.31217,-1.90523 26.58518,-4.08592 39.93964,-5.67847 9.60928,-1.10095 19.2418,-1.99333 28.81182,-3.40937 0.90041,-0.13873 1.80083,-0.27745 2.70124,-0.41618 0,0 20.68729,2.98333 20.68729,2.98333 l 0,0 c -0.9967,0.12584 -1.99341,0.25169 -2.99011,0.37753 -10.02736,1.29194 -20.0914,2.21407 -30.14627,3.26234 -13.3981,1.4627 -26.69882,3.62609 -40.02834,5.60308 -12.00814,1.77969 -24.0268,3.49571 -36.07638,4.97343 -4.8667,0.55896 -9.75048,1.15218 -14.64973,1.25786 0,0 -21.73009,-3.44171 -21.73009,-3.44171 z"
         id="path3215"
         style="fill:#00ff00;fill-opacity:1;fill-rule:evenodd;stroke:#000000;stroke-width:1;stroke-miterlimit:4;stroke-opacity:1;stroke-dasharray:none" />
      <path
         inkscape:connector-curvature="0"
         d="m 392.66915,654.66153 c 5.57393,0.24324 11.12686,-0.14861 16.67738,-0.6184 14.155,-1.3013 28.2102,-3.46055 42.28084,-5.44134 13.71446,-1.9609 27.43737,-3.88353 41.04592,-6.49389 6.46279,-1.31084 12.94342,-2.56375 19.38093,-3.99591 0,0 21.13084,2.87049 21.13084,2.87049 l 0,0 c -6.9614,1.57216 -14.11236,2.33994 -21.09362,3.83709 -13.98057,2.50707 -28.05466,4.422 -42.11458,6.42328 -13.57977,1.95202 -27.12848,4.13597 -40.75452,5.74697 -4.92502,0.56731 -9.85533,1.19285 -14.8231,1.11342 0,0 -21.73009,-3.44171 -21.73009,-3.44171 z"
         id="path3217"
         style="fill:#00ff00;fill-opacity:1;fill-rule:evenodd;stroke:#000000;stroke-width:1;stroke-miterlimit:4;stroke-opacity:1;stroke-dasharray:none" />
    </g>
  </g>
</svg>
